<?xml version="1.0" encoding="UTF-8"?>
<svg xmlns="http://www.w3.org/2000/svg" id="Layer_1" width="792" height="246" version="1.1" viewBox="0 0 792 246">
  <defs>
    <style>
      .st0 {
        fill: #231f20;
      }
    </style>
  </defs>
  <path class="st0" d="M223,170.5c-16.7,39.9-59.5,65.2-102.1,65.2-63.1,0-114-52.7-114-115.4S58.5,6.3,119.8,6.3s87.5,25.6,104.4,66.9h-46.4c-13.7-16.7-35.7-27.4-57.7-27.4-40.2,0-72.3,34.8-72.3,75.9s33.3,74.4,72.6,74.4,40.5-9.8,55.4-25.6h47.3,0Z"></path>
  <path class="st0" d="M240,15.1h144.9v35.2h-105.9v53.7h100.4v35.2h-100.4v59.3h111.5v35.2h-150.4V15.1h0Z"></path>
  <path class="st0" d="M416.6,15.1h63.6c44.5,0,72,19.1,72,58.4s-27.5,58.7-72,58.7h-41.4v101.6h-22.2V15.1h0ZM438.8,111.7h35.8c39.8,0,53.4-17.3,53.4-38.3s-13.6-38-53.4-38h-35.8v76.3h0Z"></path>
  <path class="st0" d="M561.4,134.3c0-13-.6-24.1-1.2-45.1h20.1v26.9h.6c5.9-15.4,21-30.6,46.3-30.6s10.8.6,15.1,1.8l-4,20.1c-2.5-.9-6.2-1.6-11.7-1.6-30.9,0-44.8,26.9-44.8,46.3v81.6h-20.4v-99.5h0Z"></path>
  <path class="st0" d="M711.8,237.5c-44.8,0-76.6-32.4-76.6-76s31.8-76,76.6-76,76.9,32.4,76.9,76-31.8,76-76.9,76h0ZM711.8,104c-33.4,0-54.4,25-54.4,57.5s21,57.5,54.4,57.5,54.7-25,54.7-57.5-21-57.5-54.7-57.5Z"></path>
  <metadata></metadata>
</svg>
